<?xml version="1.0" encoding="UTF-8" standalone="no"?>
<svg
   xmlns:dc="http://purl.org/dc/elements/1.1/"
   xmlns:cc="http://creativecommons.org/ns#"
   xmlns:rdf="http://www.w3.org/1999/02/22-rdf-syntax-ns#"
   xmlns:svg="http://www.w3.org/2000/svg"
   xmlns="http://www.w3.org/2000/svg"
   xmlns:sodipodi="http://sodipodi.sourceforge.net/DTD/sodipodi-0.dtd"
   xmlns:inkscape="http://www.inkscape.org/namespaces/inkscape"
   width="200mm"
   height="200mm"
   viewBox="0 0 200 200"
   version="1.1"
   id="svg8"
   inkscape:version="1.0rc1 (09960d6, 2020-04-09)"
   sodipodi:docname="logo_instagram_purple.svg">
  <defs
     id="defs2" />
  <sodipodi:namedview
     id="base"
     pagecolor="#ffffff"
     bordercolor="#666666"
     borderopacity="1.0"
     inkscape:pageopacity="0.0"
     inkscape:pageshadow="2"
     inkscape:zoom="0.70358394"
     inkscape:cx="387.31727"
     inkscape:cy="406.15328"
     inkscape:document-units="mm"
     inkscape:current-layer="layer1"
     inkscape:document-rotation="0"
     showgrid="false"
     inkscape:window-width="1434"
     inkscape:window-height="943"
     inkscape:window-x="0"
     inkscape:window-y="23"
     inkscape:window-maximized="0" />
  <metadata
     id="metadata5">
    <rdf:RDF>
      <cc:Work
         rdf:about="">
        <dc:format>image/svg+xml</dc:format>
        <dc:type
           rdf:resource="http://purl.org/dc/dcmitype/StillImage" />
        <dc:title />
      </cc:Work>
    </rdf:RDF>
  </metadata>
  <g
     inkscape:label="Calque 1"
     inkscape:groupmode="layer"
     id="layer1">
    <g
       id="g1487">
      <rect
         ry="16.694359"
         y="0"
         x="0"
         height="200"
         width="200"
         id="rect10"
         style="fill:#8160a7;fill-opacity:1;fill-rule:evenodd;stroke-width:0.264998" />
      <g
         style="fill:#04080f;fill-opacity:1;stroke-width:0.812802"
         transform="matrix(0.32552084,0,0,0.32552084,16.666667,16.666667)"
         id="g852">
        <path
           style="fill:#04080f;fill-opacity:1;stroke-width:0.812802"
           inkscape:connector-curvature="0"
           d="M 437,0 H 75 C 33.648438,0 0,33.648438 0,75 v 362 c 0,41.35156 33.648438,75 75,75 h 362 c 41.35156,0 75,-33.64844 75,-75 V 75 C 512,33.648438 478.35156,0 437,0 Z M 257,390 c -74.44141,0 -135,-60.55859 -135,-135 0,-74.44141 60.55859,-135 135,-135 74.44141,0 135,60.55859 135,135 0,74.44141 -60.55859,135 -135,135 z M 407,150 c -24.8125,0 -45,-20.1875 -45,-45 0,-24.8125 20.1875,-45 45,-45 24.8125,0 45,20.1875 45,45 0,24.8125 -20.1875,45 -45,45 z m 0,0"
           id="path835" />
        <path
           style="fill:#04080f;fill-opacity:1;stroke-width:0.812802"
           inkscape:connector-curvature="0"
           d="m 407,90 c -8.27734,0 -15,6.722656 -15,15 0,8.27734 6.72266,15 15,15 8.27734,0 15,-6.72266 15,-15 0,-8.277344 -6.72266,-15 -15,-15 z m 0,0"
           id="path837" />
        <path
           style="fill:#04080f;fill-opacity:1;stroke-width:0.812802"
           inkscape:connector-curvature="0"
           d="m 257,150 c -57.89063,0 -105,47.10937 -105,105 0,57.89062 47.10937,105 105,105 57.89062,0 105,-47.10938 105,-105 0,-57.89063 -47.10938,-105 -105,-105 z m 0,0"
           id="path839" />
      </g>
    </g>
  </g>
</svg>
