<svg id="Calque_1" data-name="Calque 1" xmlns="http://www.w3.org/2000/svg" viewBox="0 0 1391 465"><defs><style>.cls-1{fill:#8160a7;}</style></defs><path d="M28.7,238.2c0-130.2,97.2-219,219.1-219,88.9,0,141.6,44.4,173.3,95.2l-63.5,32.4c-20.3-34.9-60.9-61.6-109.8-61.6-80.7,0-142.9,64.1-142.9,153s62.2,153,142.9,153c48.9,0,89.5-26,109.8-61.6L421.1,362c-32.4,50.8-84.4,95.2-173.3,95.2C125.9,457.2,28.7,368.3,28.7,238.2Z"/><path d="M420.9,296c0-87.6,60.3-160.7,157.5-160.7s158,73.1,158,160.7-59.6,161.2-158,161.2S420.9,384.2,420.9,296Zm246.3,0c0-54-31.7-101.6-88.8-101.6S490.1,242,490.1,296s31.8,102.2,88.3,102.2S667.2,350.6,667.2,296Z"/><path class="cls-1" d="M748.6,26.1h290.2V91.5H822.9V201.4h211.4v65.4H822.9V384.2h215.9v65.4H748.6Z"/><path class="cls-1" d="M1282.3,407.7c-23.5,30.5-59,49.5-98.4,49.5-78.7,0-136.5-59.6-136.5-160.6,0-99,57.2-161.3,136.5-161.3,38.1,0,73.7,17.8,98.4,50.2V26.1H1349V449.6h-66.7Zm0-172c-15.2-22.9-47.6-41.3-79.3-41.3-52.7,0-86.4,42.5-86.4,102.2s33.7,101.6,86.4,101.6c31.7,0,64.1-17.8,79.3-40.6Z"/></svg>